<svg xmlns="http://www.w3.org/2000/svg" width="121" height="30" viewBox="0 0 121 30" fill="none">
  <g clip-path="url(#clip0_165_3857)">
    <path d="M121 8.15887V24.4706H28.4272L26.4755 8.15887H121Z" fill="#838588"/>
    <path d="M26.4755 8.15887L39.7955 24.4706H0V8.15887H26.4755Z" fill="#231F20"/>
    <path d="M54.6577 18.5699C54.6577 20.5983 53.7284 21.3347 51.1903 21.3347H43.6677C43.6988 20.7096 43.7609 20.0846 43.8069 19.4596H51.0511C52.1805 19.4596 52.5059 19.2237 52.5059 18.4035C52.5059 17.5833 52.1966 17.3474 51.0971 17.3474H46.7786C44.2244 17.3474 43.4044 16.5284 43.4044 14.7779V14.4582C43.4044 12.5556 44.2554 11.7773 46.8407 11.7773H54.3012C54.2241 12.4167 54.131 13.0417 54.0378 13.6799H46.8407C45.8195 13.6799 45.5251 13.9721 45.5251 14.7216C45.5251 15.4712 45.8195 15.7777 46.8407 15.7777H51.0971C53.7434 15.7777 54.6565 16.556 54.6565 18.2359V18.5687L54.6577 18.5699Z" fill="white"/>
    <path d="M58.3114 18.2371V21.3347H56.2218V11.7773H64.2078C66.6528 11.7773 67.4268 12.4718 67.4268 14.6809V15.5418C67.4268 17.5007 66.6528 18.2371 64.2078 18.2371H58.3103H58.3114ZM65.3544 14.6809C65.3544 13.9313 65.045 13.6667 64.2089 13.6667H58.3114V16.5284H64.2089C65.045 16.5284 65.3544 16.2363 65.3544 15.5562V14.6809Z" fill="white"/>
    <path d="M72.2099 21.3347C69.6246 21.3347 68.8816 20.5851 68.8816 18.2371V14.8749C68.8816 12.5268 69.6246 11.7773 72.2099 11.7773H77.8279C80.3661 11.7773 81.155 12.5268 81.155 14.8749V18.2371C81.155 20.5851 80.3661 21.3347 77.8279 21.3347H72.2099ZM79.0665 14.8892C79.0665 13.9445 78.7411 13.6667 77.813 13.6667H72.2099C71.2806 13.6667 70.9563 13.9445 70.9563 14.8892V18.2514C70.9563 19.1962 71.2507 19.4596 72.2099 19.4596H77.813C78.7721 19.4596 79.0665 19.1962 79.0665 18.2514V14.8892Z" fill="white"/>
    <path d="M92.1301 21.3347L88.4464 18.2095H85.0871V21.3347H82.9825V11.7773H91.6815C93.9414 11.7773 94.7304 12.5687 94.7304 14.736V15.3191C94.7304 17.6528 93.7551 18.1808 91.1238 18.1808L95.0708 21.3335H92.1301V21.3347ZM92.6568 15.0557C92.6568 14.1253 92.5326 13.6799 91.6194 13.6799H85.0883V16.6386H91.6194C92.3624 16.6386 92.6568 16.3464 92.6568 15.5131V15.0545V15.0557Z" fill="white"/>
    <path d="M99.6365 21.3347V13.6667H95.7516V11.7773H105.611V13.6667H101.726V21.3347H99.6365Z" fill="white"/>
    <path d="M117.853 18.5699C117.853 20.5983 116.924 21.3347 114.386 21.3347H106.863C106.895 20.7096 106.957 20.0846 107.003 19.4596H114.247C115.376 19.4596 115.702 19.2237 115.702 18.4035C115.702 17.5833 115.392 17.3474 114.293 17.3474H109.974C107.42 17.3474 106.6 16.5284 106.6 14.7779V14.4582C106.6 12.5556 107.451 11.7773 110.036 11.7773H117.497C117.42 12.4167 117.327 13.0417 117.234 13.6799H110.036C109.015 13.6799 108.721 13.9721 108.721 14.7216C108.721 15.4712 109.015 15.7777 110.036 15.7777H114.293C116.939 15.7777 117.852 16.556 117.852 18.2359V18.5687L117.853 18.5699Z" fill="white"/>
    <path d="M6.49323 21.3345V12.7698L5.24542 13.5588L4.05051 11.9819L6.28277 10.484H8.8658V21.3357H6.49323V21.3345Z" fill="white"/>
    <path d="M14.7173 21.3347C11.8709 21.3347 10.9566 20.5145 10.9566 17.8168V13.9996C10.9566 11.2864 11.8709 10.4818 14.7173 10.4818H20.4641C23.276 10.4818 24.2421 11.2864 24.2421 13.9996V17.8168C24.2421 20.5145 23.276 21.3347 20.4641 21.3347H14.7173ZM21.8695 14.0008C21.8695 12.9435 21.5705 12.6286 20.4641 12.6286H14.7357C13.6109 12.6286 13.3119 12.9435 13.3119 14.0008V17.818C13.3119 18.8753 13.6109 19.1902 14.7357 19.1902H20.4641C21.5716 19.1902 21.8695 18.8753 21.8695 17.818V14.0008Z" fill="white"/>
    <path d="M40.3659 20.1313C40.3659 20.1313 40.5235 20.1588 41.8 20.0403C41.8 20.0403 38.9076 18.2275 38.941 16.0004C38.9732 13.7721 39.0008 11.1738 34.5961 10.3644C28.7814 9.29635 28.7503 5.66953 28.4295 0C28.4295 0 22.5665 8.94791 29.3035 13.1243C29.3035 13.1243 27.1989 19.6847 35.7024 22.3931C35.7024 22.3931 42.6304 24.4095 42.3176 30C42.3176 30 43.4113 23.4744 40.3659 20.1313Z" fill="white"/>
    <path d="M41.8886 26.342C41.8116 23.4779 40.2072 21.2317 38.0049 19.5446C36.9963 18.7711 35.8991 18.1592 34.7674 17.6084C32.8825 16.6913 31.3391 15.4089 30.5835 13.2644C29.7049 15.0269 30.1764 17.5462 31.6519 19.1255C32.6755 20.2211 33.9141 21.0018 35.3264 21.3347C41.1974 22.7176 41.8184 26.1696 41.8875 26.3432L41.8886 26.342Z" fill="#BD3726"/>
    <path d="M27.8452 3.29633C25.8487 7.30391 27.3944 11.436 31.254 12.7112C32.925 13.2632 34.258 14.1241 34.8686 15.9214C34.9158 16.0602 34.9894 16.1908 35.1309 16.247C34.9031 13.6919 34.0774 11.5498 31.5737 10.6781C29.1206 9.82556 28.2271 7.88343 27.9717 5.43841C27.905 4.79782 27.8935 4.15005 27.8452 3.29752V3.29633Z" fill="#F38221"/>
    <path d="M38.719 18.5173C37.9313 17.7174 37.6184 16.7775 37.646 15.628C37.6989 13.4345 36.5063 12.024 34.212 11.5965C35.8255 12.6023 36.2625 14.2259 36.5535 15.9765C36.7593 17.2145 37.5563 18.0503 38.7202 18.5185L38.719 18.5173Z" fill="#F9B134"/>
  </g>
  <defs>
    <clipPath id="clip0_165_3857">
      <rect width="121" height="30" fill="white"/>
    </clipPath>
  </defs>
</svg>